<svg width="24" height="21" viewBox="0 0 24 21" fill="none" xmlns="http://www.w3.org/2000/svg">
<path d="M10.29 2.86001L1.82 17C1.64537 17.3024 1.55296 17.6453 1.55199 17.9945C1.55101 18.3437 1.64149 18.6871 1.81442 18.9905C1.98736 19.2939 2.23672 19.5468 2.53771 19.7239C2.83869 19.901 3.1808 19.9962 3.53 20H20.47C20.8192 19.9962 21.1613 19.901 21.4623 19.7239C21.7633 19.5468 22.0126 19.2939 22.1856 18.9905C22.3585 18.6871 22.449 18.3437 22.448 17.9945C22.447 17.6453 22.3546 17.3024 22.18 17L13.71 2.86001C13.5317 2.56611 13.2807 2.32313 12.9812 2.15449C12.6817 1.98585 12.3437 1.89726 12 1.89726C11.6563 1.89726 11.3183 1.98585 11.0188 2.15449C10.7193 2.32313 10.4683 2.56611 10.29 2.86001V2.86001Z" stroke="#F03D3E" stroke-width="2" stroke-linecap="round" stroke-linejoin="round"/>
<path d="M12 8V12" stroke="#F03D3E" stroke-width="2" stroke-linecap="round" stroke-linejoin="round"/>
<path d="M12 15V15.5" stroke="#F03D3E" stroke-width="2" stroke-linecap="round" stroke-linejoin="round"/>
</svg>
